HIERARCHY
ROOT Hips
{
	OFFSET -3.958830 18.904000 13.208200
	CHANNELS 6 Xposition Yposition Zposition Zrotation Yrotation Xrotation 
	JOINT LHipJoint
	{
		OFFSET 0.000000 0.000000 0.000000
		CHANNELS 3 Zrotation Yrotation Xrotation
		JOINT LeftUpLeg
		{
			OFFSET 1.800000 -1.400000 0.085000
			CHANNELS 3 Zrotation Yrotation Xrotation
			JOINT LeftLeg
			{
				OFFSET 2.215000 -6.000000 0.000000
				CHANNELS 3 Zrotation Yrotation Xrotation
				JOINT LeftFoot
				{
					OFFSET 2.500000 -6.900000 0.000000
					CHANNELS 3 Zrotation Yrotation Xrotation
					JOINT LeftToeBase
					{
						OFFSET 0.200000 -0.500000 1.950000
						CHANNELS 3 Zrotation Yrotation Xrotation
						End Site
						{
							OFFSET 0.000000 0.000000 0.000000
						}
					}
				}
			}
		}
	}
	JOINT RHipJoint
	{
		OFFSET 0.000000 0.000000 0.000000
		CHANNELS 3 Zrotation Yrotation Xrotation
		JOINT RightUpLeg
		{
			OFFSET -1.800000 -1.400000 0.085000
			CHANNELS 3 Zrotation Yrotation Xrotation
			JOINT RightLeg
			{
				OFFSET -2.215000 -6.000000 0.000000
				CHANNELS 3 Zrotation Yrotation Xrotation
				JOINT RightFoot
				{
					OFFSET -2.500000 -6.900000 0.000000
					CHANNELS 3 Zrotation Yrotation Xrotation
					JOINT RightToeBase
					{
						OFFSET -0.200000 -0.500000 1.950000
						CHANNELS 3 Zrotation Yrotation Xrotation
						End Site
						{
							OFFSET 0.000000 0.000000 0.000000
						}
					}
				}
			}
		}
	}
	JOINT LowerBack
	{
		OFFSET 0.000000 0.000000 0.000000
		CHANNELS 3 Zrotation Yrotation Xrotation
		JOINT Spine
		{
			OFFSET -0.087000 1.940000 -0.288900
			CHANNELS 3 Zrotation Yrotation Xrotation
			JOINT Spine1
			{
				OFFSET 0.000000 1.950000 0.060000
				CHANNELS 3 Zrotation Yrotation Xrotation
				JOINT Neck
				{
					OFFSET 0.000000 0.000000 0.000000
					CHANNELS 3 Zrotation Yrotation Xrotation
					JOINT Neck1
					{
						OFFSET 0.000000 1.600000 0.340000
						CHANNELS 3 Zrotation Yrotation Xrotation
						JOINT Head
						{
							OFFSET 0.000000 1.667000 -0.240000
							CHANNELS 3 Zrotation Yrotation Xrotation
							End Site
							{
								OFFSET 0.000000 0.000000 0.000000
							}
						}
					}
				}
				JOINT LeftShoulder
				{
					OFFSET 0.000000 0.000000 0.000000
					CHANNELS 3 Zrotation Yrotation Xrotation
					JOINT LeftArm
					{
						OFFSET 2.700000 1.550000 -0.730000
						CHANNELS 3 Zrotation Yrotation Xrotation
						JOINT LeftForeArm
						{
							OFFSET 5.450000 0.000000 0.000000
							CHANNELS 3 Zrotation Yrotation Xrotation
							JOINT LeftHand
							{
								OFFSET 3.450000 0.000000 0.000000
								CHANNELS 3 Zrotation Yrotation Xrotation
								JOINT LeftHandIndex1
								{
									OFFSET 0.750000 0.000000 0.000000
									CHANNELS 3 Zrotation Yrotation Xrotation
									End Site
									{
										OFFSET 0.000000 0.000000 0.000000
									}
								}
							}
						}
					}
				}
				JOINT RightShoulder
				{
					OFFSET 0.000000 0.000000 0.000000
					CHANNELS 3 Zrotation Yrotation Xrotation
					JOINT RightArm
					{
						OFFSET -2.700000 1.550000 -0.730000
						CHANNELS 3 Zrotation Yrotation Xrotation
						JOINT RightForeArm
						{
							OFFSET -5.450000 0.000000 0.000000
							CHANNELS 3 Zrotation Yrotation Xrotation
							JOINT RightHand
							{
								OFFSET -3.450000 0.000000 0.000000
								CHANNELS 3 Zrotation Yrotation Xrotation
								JOINT RightHandIndex1
								{
									OFFSET -0.750000 0.000000 0.000000
									CHANNELS 3 Zrotation Yrotation Xrotation
									End Site
									{
										OFFSET 0.000000 0.000000 0.000000
									}
								}
							}
						}
					}
				}
			}
		}
	}
}
MOTION
Frames: 7
Frame Time: 0.016667
0.279850 17.600650 -1.104980 -14.318644 -8.346154 0.921555 -14.653725 11.368624 1.444673 8.440228 -1.211166 -11.371623 -6.077874 5.551407 11.801741 -0.663451 4.195120 3.396853 0.009720 -0.452920 0.050360 19.168373 -8.817551 5.780319 -4.786277 19.538111 -42.999504 21.289510 -46.726452 94.109028 -4.131227 -19.677778 -1.047877 -0.146230 0.661240 0.173270 -5.756061 0.066742 -8.055705 29.693090 -5.535231 8.189627 -13.777643 -2.787615 13.050542 2.801443 -3.611057 -9.120824 -8.635355 4.120115 42.039845 -3.282670 0.064790 2.405320 -4.584929 2.867454 2.640471 -38.134114 -0.466623 -6.935506 -19.332338 -59.284516 7.592812 -3.825997 3.249899 0.461390 0.347220 -0.341370 0.142910 -1.267769 -2.477207 6.328840 52.399475 3.496459 -8.523962 39.641914 84.049023 25.848406 1.828346 -2.049347 -0.445510 0.359650 0.255790 -0.170740 
0.277230 17.531780 -1.113370 -14.501105 -8.672599 0.921557 -14.647855 11.391036 1.437596 8.344689 -1.243727 -12.116596 -6.157713 5.813010 13.265977 -0.657527 4.263035 3.355668 0.009200 -0.447260 0.032490 19.166977 -8.849783 5.762505 -4.050545 19.580404 -42.237782 21.242610 -46.899602 94.331088 -4.148121 -19.720854 -1.053500 -0.144970 0.661360 0.177600 -5.764004 0.068919 -8.040395 30.119806 -5.609849 8.411312 -14.056550 -2.737477 12.866826 2.722213 -3.941319 -9.181920 -9.301964 4.442237 41.851370 -3.125070 0.106410 2.385060 -4.658964 2.648304 2.677721 -37.003276 -0.346058 -6.796344 -19.809055 -60.151263 7.994641 -3.825597 3.273878 0.458490 0.346750 -0.342290 0.146410 -1.075449 -2.023595 6.329285 51.763850 3.481798 -9.165600 35.351854 83.887719 22.519741 1.791457 -2.057309 -0.438730 0.351580 0.261210 -0.165290 
0.262970 17.403320 -1.133550 -13.766162 -9.359327 0.415463 -14.664078 11.476139 1.490012 7.405009 -1.298626 -12.887461 -6.525162 6.348227 15.803907 -0.628861 4.446525 3.270869 0.026280 -0.435190 0.050870 19.132454 -8.848171 5.750910 -3.513712 19.440002 -40.892862 20.817614 -47.137778 95.213439 -4.185296 -19.804825 -1.078113 -0.142880 0.637600 0.184240 -5.691814 -0.123625 -8.100956 28.552508 -5.344057 9.777359 -13.246595 -2.573835 12.251420 2.580432 -3.883499 -9.179314 -9.369592 4.301600 42.068538 -3.298600 0.214790 2.291090 -5.183348 2.198279 2.576945 -35.127627 -0.478081 -6.578610 -19.289021 -61.156272 7.954518 -3.808630 3.291957 0.470800 0.330820 -0.327540 0.147350 -0.347352 -1.489872 6.190772 49.933857 3.361121 -9.577632 32.230678 83.350809 20.053253 1.782585 -2.051810 -0.430460 0.332930 0.248620 -0.171550 
0.253380 17.266490 -1.170580 -12.333690 -10.186838 -0.846767 -14.697178 11.637476 1.605274 5.668343 -1.436367 -13.820703 -6.365850 7.042524 19.893244 -0.577457 4.753371 3.121739 0.074860 -0.389000 0.112900 19.067763 -8.885060 5.702409 -3.264708 18.834982 -38.607671 19.599458 -46.208749 95.896051 -4.176481 -19.626900 -1.062159 -0.130120 0.568930 0.182530 -5.540034 -0.434644 -8.212638 25.788162 -5.083569 12.320672 -12.175854 -2.413771 11.501704 2.472674 -3.631276 -9.265614 -9.194524 4.379835 43.195180 -3.121460 0.564740 0.884300 -6.697206 0.824325 2.620003 -32.336289 -0.010553 -6.858265 -17.387606 -62.406258 7.043880 -3.760164 3.263931 0.517430 0.276540 -0.273460 0.138610 1.333790 -0.124298 5.954817 47.594836 3.478819 -10.810662 24.081066 82.388754 13.552895 1.759606 -1.973225 -0.413230 0.321570 0.218680 -0.192200 
0.234530 17.112920 -1.202920 -10.139532 -11.317547 -1.950934 -14.784539 11.813254 1.840738 3.216111 -1.829856 -15.403037 -5.893686 7.828719 24.886371 -0.446179 5.226985 2.936586 0.087160 -0.347560 0.127040 18.948114 -8.910018 5.588372 -3.316080 17.928962 -35.877705 18.135064 -44.019370 95.587246 -4.063048 -19.185500 -0.974920 -0.122130 0.549960 0.170910 -5.220336 -0.871498 -8.370500 21.470559 -4.269414 15.026180 -10.199118 -1.991140 10.135755 2.245024 -3.439606 -9.072588 -8.915327 4.329225 42.842152 -3.586060 1.210840 0.532090 -8.673538 -0.072788 2.482408 -29.945811 0.463341 -6.993829 -15.140969 -63.418269 5.994996 -3.756078 3.233786 0.497560 0.272470 -0.254360 0.144330 3.753766 1.120259 5.437287 44.511633 3.674323 -11.483641 17.526229 80.821945 8.497091 1.756805 -1.886031 -0.393460 0.321960 0.189360 -0.182630 
0.220480 16.951470 -1.235170 -8.394071 -12.316160 -2.248440 -14.885639 11.836411 2.215569 1.313901 -2.933442 -18.634698 -5.693010 9.017407 31.421992 -0.295085 6.196651 2.591196 0.070230 -0.373780 0.098130 18.838974 -8.954448 5.328232 -2.678839 16.672822 -33.278493 16.889573 -40.574649 93.112906 -3.811828 -18.437827 -0.845782 -0.109870 0.611270 0.175060 -4.902610 -1.149900 -8.477458 17.924219 -3.365276 16.504033 -8.467355 -1.452542 8.429757 1.834195 -3.310410 -8.155865 -8.398617 4.281648 40.754295 -3.406680 1.465660 1.522990 -11.107355 0.111347 1.758079 -27.341020 0.104369 -6.306863 -14.256188 -64.832392 5.931706 -3.827937 3.260731 0.460440 0.324510 -0.311490 0.158850 6.989097 1.239809 4.492887 40.964198 3.502291 -11.397997 12.703352 79.089687 5.322700 1.726500 -1.848668 -0.421880 0.327410 0.204440 -0.180090 
0.199140 16.783740 -1.243360 -7.280648 -14.137053 -1.765627 -14.952881 11.707976 2.580194 0.305569 -4.096541 -22.312624 -5.441415 9.903702 36.400377 -0.157652 7.025620 2.294221 0.070970 -0.369470 0.074510 18.784913 -9.044035 5.033681 -1.632964 15.658102 -30.510576 14.675736 -37.608487 92.394862 -3.630484 -17.920403 -0.758525 -0.085320 0.665040 0.195750 -4.742374 -1.106230 -8.495376 15.792215 -2.151152 16.353566 -7.649017 -0.498324 7.160030 1.466220 -3.125885 -7.056920 -7.708689 3.948567 38.473257 -3.140170 1.460310 1.970190 -12.408950 1.346887 0.692878 -25.941170 -1.590093 -5.260731 -14.244651 -65.782915 6.427223 -3.902536 3.323462 0.408830 0.377120 -0.357360 0.172900 8.934126 0.177451 3.673313 40.047801 3.257539 -11.133433 9.713471 76.737337 3.527984 1.699266 -1.851348 -0.426020 0.323140 0.215670 -0.167700 
